<svg width="60" height="60" viewBox="0 0 60 60" fill="none" xmlns="http://www.w3.org/2000/svg">
<path d="M22.125 39.125L44.375 33.25C45 33.0833 45.4688 32.6979 45.7812 32.0938C46.0938 31.4896 46.1667 30.875 46 30.25C45.8333 29.625 45.4688 29.1562 44.9062 28.8438C44.3438 28.5312 43.75 28.4583 43.125 28.625L37 30.25L27 20.875L23.5 21.75L29.5 32.25L23.5 33.75L20.375 31.375L18 32L22.125 39.125ZM50 50H10C8.625 50 7.44792 49.5104 6.46875 48.5312C5.48958 47.5521 5 46.375 5 45V35C6.375 35 7.55208 34.5104 8.53125 33.5312C9.51042 32.5521 10 31.375 10 30C10 28.625 9.51042 27.4479 8.53125 26.4688C7.55208 25.4896 6.375 25 5 25V15C5 13.625 5.48958 12.4479 6.46875 11.4688C7.44792 10.4896 8.625 10 10 10H50C51.375 10 52.5521 10.4896 53.5312 11.4688C54.5104 12.4479 55 13.625 55 15V45C55 46.375 54.5104 47.5521 53.5312 48.5312C52.5521 49.5104 51.375 50 50 50ZM50 45V15H10V21.375C11.5417 22.2917 12.7604 23.5104 13.6562 25.0312C14.5521 26.5521 15 28.2083 15 30C15 31.7917 14.5521 33.4479 13.6562 34.9688C12.7604 36.4896 11.5417 37.7083 10 38.625V45H50Z" fill="black" fill-opacity="0.6"/>
</svg>
