<svg width="60" height="60" viewBox="0 0 60 60" fill="none" xmlns="http://www.w3.org/2000/svg">
<path d="M15 50C12.9167 50 11.1458 49.2708 9.6875 47.8125C8.22917 46.3542 7.5 44.5833 7.5 42.5H2.5V15C2.5 13.625 2.98958 12.4479 3.96875 11.4688C4.94792 10.4896 6.125 10 7.5 10H42.5V20H50L57.5 30V42.5H52.5C52.5 44.5833 51.7708 46.3542 50.3125 47.8125C48.8542 49.2708 47.0833 50 45 50C42.9167 50 41.1458 49.2708 39.6875 47.8125C38.2292 46.3542 37.5 44.5833 37.5 42.5H22.5C22.5 44.5833 21.7708 46.3542 20.3125 47.8125C18.8542 49.2708 17.0833 50 15 50ZM15 45C15.7083 45 16.3021 44.7604 16.7812 44.2812C17.2604 43.8021 17.5 43.2083 17.5 42.5C17.5 41.7917 17.2604 41.1979 16.7812 40.7188C16.3021 40.2396 15.7083 40 15 40C14.2917 40 13.6979 40.2396 13.2187 40.7188C12.7396 41.1979 12.5 41.7917 12.5 42.5C12.5 43.2083 12.7396 43.8021 13.2187 44.2812C13.6979 44.7604 14.2917 45 15 45ZM7.5 37.5H9.5C10.2083 36.75 11.0208 36.1458 11.9375 35.6875C12.8542 35.2292 13.875 35 15 35C16.125 35 17.1458 35.2292 18.0625 35.6875C18.9792 36.1458 19.7917 36.75 20.5 37.5H37.5V15H7.5V37.5ZM45 45C45.7083 45 46.3021 44.7604 46.7812 44.2812C47.2604 43.8021 47.5 43.2083 47.5 42.5C47.5 41.7917 47.2604 41.1979 46.7812 40.7188C46.3021 40.2396 45.7083 40 45 40C44.2917 40 43.6979 40.2396 43.2187 40.7188C42.7396 41.1979 42.5 41.7917 42.5 42.5C42.5 43.2083 42.7396 43.8021 43.2187 44.2812C43.6979 44.7604 44.2917 45 45 45ZM42.5 32.5H53.125L47.5 25H42.5V32.5Z" fill="black" fill-opacity="0.6"/>
</svg>
