<svg width="60" height="60" viewBox="0 0 60 60" fill="none" xmlns="http://www.w3.org/2000/svg">
<path d="M10 38.75V15C10 12.7917 10.5729 11.0312 11.7188 9.71875C12.8646 8.40625 14.375 7.40625 16.25 6.71875C18.125 6.03125 20.2604 5.57292 22.6562 5.34375C25.0521 5.11458 27.5 5 30 5C32.75 5 35.3438 5.11458 37.7812 5.34375C40.2188 5.57292 42.3438 6.03125 44.1562 6.71875C45.9688 7.40625 47.3958 8.40625 48.4375 9.71875C49.4792 11.0312 50 12.7917 50 15V38.75C50 41.2083 49.1562 43.2812 47.4688 44.9688C45.7812 46.6562 43.7083 47.5 41.25 47.5L45 51.25V52.5H40L35 47.5H25L20 52.5H15V51.25L18.75 47.5C16.2917 47.5 14.2188 46.6562 12.5312 44.9688C10.8438 43.2812 10 41.2083 10 38.75ZM30 10C25.5833 10 22.3542 10.2604 20.3125 10.7812C18.2708 11.3021 16.875 11.875 16.125 12.5H44.125C43.5 11.7917 42.1562 11.1979 40.0938 10.7188C38.0312 10.2396 34.6667 10 30 10ZM15 25H27.5V17.5H15V25ZM41.25 30H15H45H41.25ZM32.5 25H45V17.5H32.5V25ZM21.25 40C22.3333 40 23.2292 39.6458 23.9375 38.9375C24.6458 38.2292 25 37.3333 25 36.25C25 35.1667 24.6458 34.2708 23.9375 33.5625C23.2292 32.8542 22.3333 32.5 21.25 32.5C20.1667 32.5 19.2708 32.8542 18.5625 33.5625C17.8542 34.2708 17.5 35.1667 17.5 36.25C17.5 37.3333 17.8542 38.2292 18.5625 38.9375C19.2708 39.6458 20.1667 40 21.25 40ZM38.75 40C39.8333 40 40.7292 39.6458 41.4375 38.9375C42.1458 38.2292 42.5 37.3333 42.5 36.25C42.5 35.1667 42.1458 34.2708 41.4375 33.5625C40.7292 32.8542 39.8333 32.5 38.75 32.5C37.6667 32.5 36.7708 32.8542 36.0625 33.5625C35.3542 34.2708 35 35.1667 35 36.25C35 37.3333 35.3542 38.2292 36.0625 38.9375C36.7708 39.6458 37.6667 40 38.75 40ZM18.75 42.5H41.25C42.3333 42.5 43.2292 42.1458 43.9375 41.4375C44.6458 40.7292 45 39.8333 45 38.75V30H15V38.75C15 39.8333 15.3542 40.7292 16.0625 41.4375C16.7708 42.1458 17.6667 42.5 18.75 42.5ZM30 12.5H44.125H16.125H30Z" fill="black" fill-opacity="0.6"/>
</svg>
