<svg width="26" height="26" viewBox="0 0 26 26" fill="none" xmlns="http://www.w3.org/2000/svg">
<g clip-path="url(#clip0_283_491)">
<path d="M11.115 0.052002C11.734 0.306515 11.9472 0.680731 11.815 1.24394C11.7318 1.59839 11.4798 1.77174 11.1482 1.8735C11.1482 2.66302 11.1482 3.44793 11.1482 4.27218C11.4118 4.27218 11.676 4.26775 11.9401 4.27292C13.3461 4.30042 14.4671 5.22649 14.7361 6.59485C14.7841 6.8394 14.7975 7.09409 14.798 7.34416C14.8027 9.52804 14.8008 11.7119 14.8008 13.8958C14.8008 13.9895 14.8008 14.0831 14.8008 14.1902C15.0472 14.1902 15.2774 14.1902 15.5379 14.1902C15.5379 13.983 15.536 13.7779 15.5382 13.5728C15.5459 12.8733 16.0667 12.298 16.7691 12.2822C17.8345 12.2583 18.9011 12.2583 19.9665 12.2817C20.677 12.2974 21.1867 12.8757 21.2106 13.626C21.2163 13.807 21.2114 13.9883 21.2114 14.2038C21.3121 14.2038 21.4032 14.2027 21.4943 14.204C22.3688 14.2162 23.2459 14.1909 24.1169 14.2525C24.9089 14.3086 25.5667 15.032 25.6432 15.8203C25.6599 15.9924 25.6693 16.166 25.6694 16.3389C25.671 18.9041 25.6668 21.4694 25.6726 24.0346C25.6744 24.8377 25.349 25.4417 24.6309 25.806C24.4282 25.9088 24.1884 25.9387 23.92 26.0007C20.2652 25.9998 16.6561 26.0002 13.0469 26.0013C12.9434 26.0013 12.8399 26.0081 12.7157 26.0076C11.7654 25.8402 11.2458 25.269 11.0629 24.3614C8.7228 24.3614 6.3833 24.3614 4.01712 24.3614C4.02982 25.0468 4.16477 25.7841 3.27599 26.052C3.16982 26.052 3.06366 26.052 2.92666 26.0354C2.42004 25.8419 2.22886 25.5726 2.22292 25.0611C2.2194 24.7581 2.22228 24.455 2.22228 24.1556C2.19529 24.1359 2.17614 24.1169 2.15321 24.1058C1.04492 23.5655 0.466384 22.6873 0.466021 21.4464C0.464625 16.6732 0.46479 11.8999 0.465952 7.12668C0.466307 5.66615 1.50356 4.47815 2.95009 4.30828C3.32346 4.26443 3.70636 4.30169 4.09599 4.30169C4.09599 3.46093 4.09599 2.66858 4.09599 1.87957C3.54452 1.66784 3.36294 1.38463 3.41566 0.828789C3.45357 0.429092 3.70331 0.159935 4.12062 0.0993898C6.35834 0.102903 8.57111 0.10355 10.7839 0.100748C10.8813 0.100624 10.9786 0.0689693 11.076 0.052002C11.076 0.052002 11.102 0.052002 11.115 0.052002ZM14.3881 9.38601C14.3881 8.67535 14.392 7.96466 14.3873 7.25402C14.3771 5.71605 13.338 4.68113 11.8054 4.68058C9.00606 4.67958 6.20663 4.69549 3.40749 4.67406C1.94863 4.66289 0.852141 5.84023 0.860343 7.20731C0.88868 11.9304 0.87084 16.6538 0.8728 21.3771C0.872879 21.567 0.874612 21.761 0.910981 21.9461C1.14652 23.1449 2.09546 23.9219 3.35109 23.9257C5.85571 23.9335 8.36037 23.9283 10.865 23.9273C10.93 23.9272 10.9949 23.9143 11.0677 23.9066C11.0677 23.7924 11.0677 23.6978 11.0677 23.6032C11.0677 21.1246 11.0703 18.6459 11.0653 16.1673C11.0644 15.7559 11.1643 15.3855 11.3823 15.0365C11.4545 14.9209 11.5046 14.7694 11.505 14.6342C11.5121 12.1122 11.51 9.59022 11.511 7.06824C11.5111 6.94726 11.5116 6.82463 11.5301 6.70559C11.6193 6.13119 12.2546 5.84843 12.7424 6.16239C13.0371 6.35213 13.1157 6.63572 13.1152 6.9679C13.1115 9.28188 13.1133 11.5959 13.1133 13.9098C13.1133 14.0023 13.1133 14.0947 13.1133 14.1852C13.5532 14.1852 13.9634 14.1852 14.3881 14.1852C14.3881 12.5902 14.3881 11.0141 14.3881 9.38601ZM22.4634 24.258C22.4634 21.0491 22.4634 17.8402 22.4634 14.6362C19.7169 14.6362 17.0093 14.6362 14.2987 14.6362C14.2987 18.2925 14.2987 21.9341 14.2987 25.5734C17.0272 25.5734 19.7405 25.5734 22.4627 25.5734C22.4627 25.1401 22.4627 24.725 22.4634 24.258ZM13.8705 25.2902C13.8705 21.7411 13.8705 18.192 13.8705 14.6347C13.4869 14.6347 13.1333 14.6217 12.7811 14.6377C12.2508 14.6617 11.8947 14.9887 11.6586 15.4149C11.5324 15.6428 11.4915 15.9424 11.4889 16.2104C11.4737 17.7524 11.4811 19.2947 11.4816 20.8368C11.4819 21.9544 11.4753 23.0721 11.4873 24.1896C11.4947 24.8735 11.9984 25.4958 12.6332 25.5719C13.0322 25.6197 13.4416 25.5808 13.8705 25.5808C13.8705 25.4918 13.8705 25.4161 13.8705 25.2902ZM23.8312 25.5918C24.636 25.5633 25.2609 24.9525 25.2637 24.1458C25.2727 21.4703 25.2717 18.7947 25.2645 16.1192C25.2626 15.4167 24.8121 14.8021 24.1765 14.6816C23.7593 14.6025 23.3226 14.6254 22.8909 14.6024C22.8909 18.2931 22.8909 21.9344 22.8909 25.5919C23.1964 25.5919 23.4891 25.5919 23.8312 25.5918ZM9.13606 3.56493C9.33864 3.79281 9.54122 4.02069 9.75331 4.25927C9.75331 3.45409 9.75331 2.66582 9.75331 1.88225C8.32393 1.88225 6.91369 1.88225 5.50142 1.88225C5.50142 2.67657 5.50142 3.46061 5.50142 4.2994C5.62964 4.13035 5.73192 4.01297 5.81459 3.88311C6.03088 3.54334 6.33287 3.40687 6.73503 3.4184C7.34966 3.43602 7.96536 3.41438 8.58017 3.4285C8.75541 3.43252 8.92913 3.50261 9.13606 3.56493ZM17.2402 14.2039C18.1121 14.2039 18.9839 14.2039 19.8544 14.2039C19.8691 13.6549 19.7344 13.5127 19.2304 13.5122C18.65 13.5117 18.0695 13.5113 17.4891 13.5123C16.9918 13.5132 16.8517 13.6759 16.9117 14.2039C17.0023 14.2039 17.0957 14.2039 17.2402 14.2039ZM10.6792 1.87543C10.5181 1.87543 10.3571 1.87543 10.1989 1.87543C10.1989 2.68646 10.1989 3.46957 10.1989 4.2553C10.378 4.2553 10.5447 4.2553 10.7176 4.2553C10.7176 3.46187 10.7176 2.68487 10.6792 1.87543ZM5.06569 3.40598C5.06569 2.89927 5.06569 2.39255 5.06569 1.88967C4.86575 1.88967 4.69787 1.88967 4.53802 1.88967C4.53802 2.6915 4.53802 3.47619 4.53802 4.25452C4.72206 4.25452 4.89072 4.25452 5.06563 4.25452C5.06563 3.97753 5.06563 3.71774 5.06569 3.40598ZM8.80789 4.27203C8.92418 4.27203 9.04048 4.27203 9.17932 4.27203C9.02783 3.96733 8.83656 3.82449 8.514 3.83465C7.91834 3.8534 7.32128 3.8531 6.7256 3.83476C6.40049 3.82475 6.2209 3.98193 6.06527 4.27203C6.98379 4.27203 7.8705 4.27203 8.80789 4.27203Z" fill="white"/>
<path d="M12.7644 26.052C12.74 26.052 12.735 26.0322 12.7357 26.022C12.8399 26.0081 12.9434 26.0013 13.047 26.0013C16.6561 26.0002 20.2652 25.9998 23.8985 26.0037C23.9227 26.0081 23.9196 26.0299 23.9198 26.041C20.2096 26.052 16.4992 26.052 12.7644 26.052Z" fill="#BFBFBF"/>
<path d="M4.12065 0.0993898C4.09571 0.0958765 4.09959 0.0733025 4.10381 0.0626523C6.41444 0.052002 8.72086 0.052002 11.0516 0.052002C10.9786 0.0689693 10.8813 0.100624 10.7839 0.100748C8.57114 0.10355 6.35837 0.102903 4.12065 0.0993898Z" fill="#3F3F3F"/>
<path d="M4.41806 16.64C4.41802 13.3554 4.41912 10.0968 4.41632 6.83827C4.41602 6.49002 4.55274 6.22051 4.8719 6.09375C5.19348 5.96602 5.51934 5.98874 5.79129 6.24429C5.98352 6.42492 6.02309 6.65845 6.02294 6.90903C6.0215 9.29229 6.02208 11.6756 6.02208 14.0588C6.02207 16.5287 6.02298 18.9987 6.02143 21.4686C6.02105 22.0836 5.618 22.4214 5.02706 22.3101C4.63956 22.2371 4.41956 21.9599 4.41884 21.5278C4.41668 20.2279 4.41806 18.9279 4.41806 17.628C4.41806 17.3073 4.41806 16.9866 4.41806 16.64Z" fill="white"/>
<path d="M8.42509 11.388C8.42509 14.7741 8.42568 18.1343 8.42454 21.4944C8.42434 22.0875 8.01849 22.4198 7.43689 22.3101C7.11262 22.2489 6.90048 22.0396 6.83856 21.7104C6.82271 21.6261 6.82131 21.5383 6.8213 21.4521C6.82053 16.6024 6.82153 11.7527 6.81879 6.903C6.81858 6.53226 6.93151 6.22479 7.29169 6.08894C7.61434 5.96726 7.96465 5.97019 8.19726 6.26111C8.32545 6.42143 8.41298 6.66192 8.41545 6.86751C8.43342 8.3655 8.4251 9.8638 8.42509 11.388Z" fill="white"/>
<path d="M9.10437 18.304C9.10436 14.4762 9.1054 10.6743 9.1026 6.87249C9.10234 6.51903 9.22312 6.23131 9.55388 6.09666C9.87333 5.96662 10.2263 5.96285 10.4641 6.24626C10.6005 6.40888 10.6954 6.65851 10.6996 6.87115C10.7222 8.00518 10.7102 9.13991 10.7102 10.2744C10.7102 14.007 10.7106 17.7395 10.7098 21.4721C10.7097 22.0836 10.3031 22.4238 9.71547 22.3096C9.33096 22.2348 9.10681 21.9544 9.10547 21.5256C9.10215 20.4604 9.10438 19.3952 9.10437 18.304Z" fill="white"/>
<path d="M2.01166 18.148C2.01165 14.3788 2.01358 10.6356 2.00855 6.8924C2.00806 6.52729 2.12594 6.2476 2.46166 6.08882C2.74926 5.9528 3.16865 6.01777 3.37634 6.25041C3.47947 6.36593 3.53342 6.52986 3.59171 6.67889C3.61855 6.74751 3.60528 6.83295 3.60529 6.91077C3.60575 11.7544 3.60596 16.598 3.60537 21.4416C3.60529 22.0891 3.22308 22.4236 2.61868 22.3099C2.22886 22.2366 2.01514 21.9699 2.0131 21.5273C2.00857 20.5482 2.01167 19.569 2.01166 18.5899C2.01166 18.4513 2.01166 18.3126 2.01166 18.148Z" fill="white"/>
</g>
<defs>
<clipPath id="clip0_283_491">
<rect width="26" height="26" fill="white"/>
</clipPath>
</defs>
</svg>
